<?xml version="1.0" standalone="no"?>
<!DOCTYPE svg PUBLIC "-//W3C//DTD SVG 20010904//EN" "http://www.w3.org/TR/2001/REC-SVG-20010904/DTD/svg10.dtd">
<svg version="1.0" xmlns="http://www.w3.org/2000/svg" width="1024.000000pt" height="1024.000000pt" viewBox="0 0 1024.000000 1024.000000" preserveAspectRatio="xMidYMid meet">

  <g transform="translate(0.000000,1024.000000) scale(0.100000,-0.100000)" fill="#000000" stroke="none">
    <path d="M0 5120 l0 -5120 5120 0 5120 0 0 5120 0 5120 -5120 0 -5120 0 0
-5120z m5179 4388 c26 -19 240 -258 259 -290 9 -16 19 -28 23 -28 6 0 5 68 -5
252 l-3 67 64 7 c35 3 67 3 70 0 4 -4 -1 -20 -10 -35 -15 -25 -17 -62 -17
-281 l0 -253 -37 6 c-45 8 -73 34 -211 200 -59 70 -112 127 -119 127 -8 0 -10
-22 -7 -77 8 -133 14 -162 40 -192 26 -32 31 -51 12 -52 -41 -2 -183 3 -187 7
-3 2 6 18 19 36 22 31 23 38 24 237 0 177 -2 210 -17 238 -27 51 -23 57 33 50
28 -3 59 -12 69 -19z m262 -1473 c51 -247 98 -484 105 -525 33 -174 154 -886
154 -901 0 -5 -13 -3 -30 6 -69 36 -160 49 -330 48 -137 -1 -185 -6 -284 -27
-65 -15 -122 -29 -127 -32 -14 -8 -11 19 16 161 14 72 40 218 60 325 42 239
56 312 89 465 14 66 53 264 87 440 56 297 111 563 126 610 10 30 33 -67 134
-570z m-306 558 c-5 -10 -15 -44 -24 -75 -14 -52 -18 -58 -46 -62 -16 -2 -108
-14 -203 -26 -208 -26 -347 -59 -587 -138 -215 -71 -266 -92 -448 -183 -222
-111 -459 -264 -667 -430 -84 -67 -274 -254 -385 -379 -90 -102 -253 -334
-339 -484 -258 -448 -393 -869 -462 -1439 -3 -32 -12 -60 -18 -61 -113 -28
-142 -33 -147 -28 -8 10 6 170 31 342 60 414 196 830 375 1146 16 27 48 85 73
129 78 136 245 371 345 485 129 145 375 383 487 471 180 140 350 249 542 349
374 193 691 301 1052 360 234 38 226 37 335 39 85 1 92 0 86 -16z m760 -23
c332 -57 666 -165 955 -310 117 -59 368 -210 491 -297 268 -188 565 -473 748
-718 256 -343 459 -735 576 -1110 88 -285 155 -625 155 -791 0 -40 -2 -74 -3
-74 -2 0 -30 9 -62 20 -32 11 -66 20 -76 20 -22 0 -24 7 -44 170 -32 255 -130
632 -222 855 -229 553 -511 949 -938 1316 -321 276 -731 508 -1130 640 -236
78 -498 134 -735 157 l-75 7 -11 53 c-7 29 -15 64 -19 79 l-6 26 108 -6 c59
-3 189 -20 288 -37z m-836 -362 c-10 -57 -31 -158 -46 -225 l-28 -123 -40 0
c-60 0 -267 -45 -413 -90 -387 -119 -720 -304 -1036 -574 -33 -28 -66 -63 -75
-77 l-17 -27 -127 116 c-70 65 -144 137 -164 161 l-37 44 69 64 c171 157 312
261 546 401 348 209 812 369 1189 411 52 6 109 13 125 15 17 1 40 4 51 5 l21
1 -18 -102z m751 71 c52 -11 153 -31 224 -45 279 -55 696 -229 969 -406 213
-138 455 -328 512 -403 l27 -35 -28 -37 c-15 -21 -79 -89 -141 -151 l-113
-113 -82 69 c-354 295 -625 452 -1008 583 -153 52 -300 89 -438 110 l-82 12
-10 36 c-18 68 -77 401 -72 406 9 8 142 -6 242 -26z m-1079 -744 c9 -27 20
-69 24 -92 l7 -42 -42 -11 c-24 -6 -46 -8 -50 -3 -10 10 -37 98 -45 144 -6 34
-4 38 22 47 51 19 67 11 84 -43z m1256 32 c9 -9 10 -24 2 -57 -15 -69 -40
-130 -54 -130 -31 0 -75 23 -75 40 0 18 37 147 47 164 7 11 64 -1 80 -17z
m-1545 -163 c22 -47 36 -90 31 -94 -4 -4 -22 -11 -40 -15 -29 -6 -33 -3 -57
37 -14 24 -32 63 -40 86 l-16 43 33 14 c17 8 36 14 40 15 5 0 26 -39 49 -86z
m1836 60 c28 -20 28 -24 -9 -106 -34 -72 -53 -83 -101 -57 -25 13 -21 39 17
122 29 62 50 72 93 41z m-2125 -172 c54 -89 54 -97 10 -125 -21 -14 -41 -23
-45 -21 -14 9 -88 156 -82 166 10 15 67 48 75 42 4 -2 23 -30 42 -62z m2413
38 c31 -20 32 -23 21 -49 -26 -61 -82 -131 -104 -131 -31 0 -64 35 -56 57 15
44 79 143 92 143 7 0 29 -9 47 -20z m-3347 -270 l65 -73 -31 -26 c-58 -51
-209 -259 -327 -450 -181 -294 -315 -667 -357 -992 l-12 -97 -76 -12 c-81 -13
-304 -55 -346 -66 -23 -6 -25 -4 -25 32 0 42 43 327 61 409 126 563 356 1019
738 1466 l64 74 91 -96 c50 -52 120 -128 155 -169z m1646 198 c-4 -29 -12 -58
-18 -64 -7 -6 -57 -24 -112 -39 -155 -43 -228 -71 -388 -151 -168 -84 -280
-156 -417 -267 -52 -43 -97 -77 -101 -77 -3 0 -18 18 -33 40 l-27 41 20 28
c85 119 478 363 735 456 77 28 278 78 339 84 5 1 6 -23 2 -51z m1054 18 c152
-39 211 -61 388 -147 187 -91 404 -241 515 -356 77 -80 64 -143 -22 -107 -18
8 -74 45 -124 83 -276 209 -569 353 -853 422 -48 11 -53 16 -57 43 -13 82 -13
96 2 96 8 0 76 -16 151 -34z m1787 -33 c27 -32 71 -86 97 -120 26 -35 67 -89
91 -120 126 -167 294 -488 407 -778 89 -226 170 -568 195 -819 7 -65 6 -69
-12 -62 -10 4 -62 16 -114 26 -52 10 -139 26 -193 36 -82 16 -98 22 -101 39
-2 11 -11 63 -21 115 -87 497 -282 916 -628 1343 l-79 98 64 58 c34 32 99 99
142 150 44 50 85 91 91 91 6 0 33 -26 61 -57z m-3826 -145 c23 -28 39 -56 37
-62 -2 -6 -17 -18 -33 -26 -16 -8 -52 -29 -81 -47 l-52 -32 -30 46 -30 45 21
29 c12 16 28 29 35 29 7 0 13 10 13 22 0 12 10 32 21 44 28 29 45 21 99 -48z
m2958 52 c17 -11 32 -23 32 -28 0 -4 -29 -36 -64 -71 l-64 -63 -31 18 c-17 10
-31 26 -31 35 0 20 96 129 114 129 6 0 26 -9 44 -20z m117 -139 c0 -24 -64
-110 -82 -111 -7 0 -22 9 -33 20 -24 24 -18 40 37 101 33 36 37 38 57 26 12
-8 21 -24 21 -36z m235 -150 c-10 -14 -50 -57 -89 -95 -68 -68 -71 -69 -96
-56 -59 32 -55 45 46 146 l93 94 33 -32 32 -31 -19 -26z m-3629 9 c42 -38 82
-83 89 -100 12 -29 11 -33 -12 -57 -18 -17 -32 -23 -46 -19 -11 4 -57 49 -102
102 l-83 95 23 24 c13 14 31 25 39 25 9 0 50 -31 92 -70z m2630 -63 c18 -12
39 -34 46 -47 22 -42 -6 -122 -46 -133 -22 -5 -103 32 -137 64 -28 26 -30 48
-9 89 28 55 88 66 146 27z m-1637 -12 c30 -28 32 -51 10 -99 -33 -68 -99 -72
-154 -10 -38 44 -38 69 1 105 41 39 104 41 143 4z m-1192 -196 c43 -28 78 -54
78 -57 0 -11 -42 -72 -50 -72 -14 0 -127 70 -145 90 -15 17 -15 20 7 54 13 20
25 36 27 36 3 0 40 -23 83 -51z m4013 17 l19 -35 -25 -21 c-63 -54 -110 -81
-129 -75 -27 8 -56 53 -44 65 28 28 131 99 145 99 9 1 24 -14 34 -33z m-3668
-34 c15 -19 10 -29 -69 -135 -59 -81 -172 -265 -223 -366 -46 -93 -114 -271
-150 -395 -19 -65 -36 -120 -37 -120 -7 -5 -122 -25 -124 -23 -9 9 63 272 104
378 86 223 251 505 368 627 55 57 63 63 90 56 16 -3 34 -13 41 -22z m3350 -39
c97 -102 260 -378 352 -595 40 -93 121 -382 110 -392 -5 -5 -118 10 -125 16
-1 2 -20 64 -42 138 -72 246 -147 404 -313 652 -54 83 -99 156 -99 164 0 14
55 54 74 54 5 0 24 -17 43 -37z m-237 4 c0 -6 -31 -62 -70 -122 -38 -61 -95
-153 -126 -205 -83 -140 -125 -200 -140 -200 -7 0 -31 26 -52 58 -22 31 -60
80 -86 108 -25 29 -46 57 -46 62 0 16 83 73 215 147 66 37 145 84 175 103 53
34 107 61 123 62 4 0 7 -6 7 -13z m-2885 -50 c327 -193 395 -236 395 -249 0
-5 -27 -39 -60 -75 -33 -36 -72 -85 -87 -109 -16 -24 -31 -43 -35 -41 -18 6
-312 459 -331 510 -11 30 22 20 118 -36z m1615 -16 c242 -56 411 -148 600
-328 170 -162 293 -383 335 -606 16 -83 19 -202 9 -281 l-7 -47 -44 78 c-25
43 -69 125 -99 183 -98 193 -188 234 -186 86 1 -69 19 -115 101 -259 94 -164
127 -246 163 -401 37 -159 41 -260 14 -331 -28 -73 -80 -151 -145 -215 -68
-69 -173 -114 -290 -124 -85 -7 -104 -19 -133 -84 -14 -31 -21 -76 -25 -167
l-6 -124 -96 -31 c-53 -17 -102 -34 -108 -36 -10 -4 -13 16 -13 84 0 102 -11
144 -45 166 -34 23 -59 20 -94 -10 l-31 -26 0 -119 0 -119 -27 -11 c-53 -20
-118 -22 -176 -5 l-57 17 0 118 c0 109 -2 119 -22 138 -32 28 -66 34 -99 17
-42 -21 -49 -43 -49 -154 l0 -102 -35 6 c-20 4 -71 19 -113 34 l-77 27 -6 115
c-7 130 -13 161 -41 208 -25 42 -37 47 -149 72 -183 40 -281 111 -360 263 -57
110 -61 177 -25 369 39 203 68 280 156 423 89 144 130 241 130 305 0 38 -32
56 -83 46 -44 -8 -48 -14 -90 -113 -19 -45 -66 -134 -103 -197 l-69 -115 -8
37 c-14 64 -2 269 21 357 109 409 410 711 828 830 209 59 374 67 554 26z
m-2356 -165 c42 -19 76 -37 76 -40 0 -22 -37 -76 -52 -76 -26 0 -158 68 -158
81 0 19 34 69 47 69 6 0 46 -15 87 -34z m4350 8 c10 -14 16 -32 14 -41 -3 -16
-131 -93 -154 -93 -14 0 -47 71 -37 81 17 17 129 77 144 78 9 1 24 -11 33 -25z
m163 -323 c4 -17 0 -28 -13 -38 -19 -14 -136 -53 -158 -53 -13 0 -36 41 -36
64 0 8 38 29 88 48 95 38 105 36 119 -21z m-4654 12 c48 -19 67 -31 67 -44 0
-21 -20 -69 -30 -69 -18 0 -175 60 -178 69 -2 5 4 26 12 46 18 41 14 41 129
-2z m690 -24 c46 -24 67 -51 60 -78 -8 -34 -22 -51 -52 -62 -35 -14 -88 7
-106 41 -19 37 -19 39 5 78 21 35 53 42 93 21z m3214 -77 c28 -33 29 -73 4
-96 -24 -22 -44 -12 -90 39 -37 42 -39 58 -8 80 29 21 66 12 94 -23z m-4027
-208 c41 -8 79 -19 84 -24 5 -5 5 -25 2 -44 -8 -44 -17 -45 -128 -14 l-79 21
7 31 c11 54 6 53 114 30z m4859 -1 c5 -10 11 -29 12 -42 4 -22 -2 -26 -53 -42
-31 -9 -73 -20 -93 -23 -34 -7 -36 -5 -50 28 -8 20 -15 37 -15 40 0 2 28 13
63 25 109 35 123 36 136 14z m-3801 -195 c-5 -24 -8 -114 -6 -200 3 -128 1
-158 -10 -158 -7 0 -11 -4 -8 -9 4 -5 0 -12 -6 -14 -7 -3 -3 -6 10 -6 12 -1
24 -7 26 -13 44 -166 49 -204 37 -285 -7 -46 -9 -99 -5 -119 l7 -36 -44 7
c-24 3 -109 20 -189 36 -362 73 -1059 203 -1471 274 -108 19 -251 48 -317 64
-66 17 -156 37 -198 44 l-78 13 114 22 c63 12 149 26 190 33 41 6 127 22 190
36 173 37 528 110 675 139 72 13 213 41 315 60 102 20 255 51 340 69 184 40
398 83 421 84 15 1 16 -5 7 -41z m2927 -9 c132 -27 427 -88 655 -134 471 -96
656 -135 785 -165 50 -12 158 -32 240 -45 218 -34 285 -47 285 -56 0 -5 -17
-11 -37 -14 -21 -3 -72 -13 -113 -21 -41 -8 -115 -22 -165 -30 -49 -9 -160
-31 -245 -50 -85 -18 -186 -38 -225 -44 -38 -6 -124 -22 -190 -35 -66 -13
-178 -33 -250 -44 -71 -12 -188 -32 -260 -46 -71 -13 -222 -40 -335 -60 -113
-20 -249 -45 -302 -55 -53 -11 -103 -20 -111 -20 -10 0 -16 18 -21 57 -4 31
-16 88 -27 125 -24 77 -22 93 21 183 47 102 62 302 34 468 -5 28 -3 37 7 37 8
0 122 -23 254 -51z m-5550 -129 c42 -16 82 -30 90 -30 19 0 19 -24 1 -39 -8
-7 -24 -33 -36 -58 l-21 -46 -27 26 c-55 53 -156 74 -194 40 -41 -37 -23 -55
97 -103 145 -57 189 -103 188 -193 -1 -67 -36 -117 -108 -152 -50 -25 -64 -27
-124 -22 -61 5 -207 54 -235 78 -6 5 1 30 17 61 15 29 27 60 27 68 0 9 12 3
33 -17 45 -43 88 -62 154 -69 51 -6 60 -4 78 15 14 17 17 26 9 38 -13 21 -22
26 -128 70 -102 42 -161 92 -171 146 -14 75 35 160 116 200 55 27 145 22 234
-13z m8235 -34 c0 -19 -4 -46 -10 -60 l-10 -26 -140 0 c-155 0 -148 4 -133
-70 l6 -33 109 6 108 7 -1 -38 c-2 -86 -3 -86 -119 -92 l-105 -5 0 -45 0 -45
129 3 c71 1 137 7 148 13 10 5 22 8 26 5 4 -2 6 -38 4 -80 l-4 -76 -225 0
-225 1 6 33 c9 45 9 457 0 501 l-6 35 221 0 221 0 0 -34z m-7723 -429 c40 -13
75 -25 77 -28 2 -2 18 -96 36 -209 64 -415 164 -739 331 -1072 403 -805 1062
-1404 1872 -1704 199 -74 424 -131 670 -172 222 -36 228 -38 233 -62 3 -14 12
-42 20 -63 26 -69 24 -70 -68 -63 -319 26 -738 129 -1058 261 -285 116 -638
332 -890 543 -111 93 -373 358 -481 488 -252 302 -492 729 -628 1116 -53 155
-125 436 -145 571 -15 98 -46 374 -46 405 0 15 -8 16 77 -11z m6939 -104 c-8
-154 -26 -269 -71 -468 -29 -127 -49 -201 -105 -375 -52 -165 -238 -577 -290
-645 -5 -5 -22 -36 -39 -67 -46 -84 -182 -280 -268 -386 -162 -200 -454 -478
-658 -628 -120 -89 -402 -261 -547 -335 -215 -109 -503 -214 -749 -273 -143
-35 -572 -97 -582 -85 -3 2 3 38 11 80 l16 77 45 5 c517 58 928 187 1330 417
333 191 543 352 802 616 211 217 341 398 510 714 191 357 328 747 393 1120 9
47 22 117 30 155 8 39 16 90 18 114 l3 44 75 22 c41 12 77 23 79 24 2 0 1 -56
-3 -126z m-6497 17 c90 -16 177 -30 192 -30 32 0 28 9 54 -139 54 -316 208
-709 403 -1029 79 -130 100 -159 239 -331 96 -119 93 -110 58 -134 -16 -12
-88 -82 -160 -155 l-130 -134 -55 64 c-418 476 -719 1129 -785 1703 -8 66 -17
144 -21 173 -7 52 -7 53 17 48 13 -3 98 -19 188 -36z m6187 -22 c-39 -388
-145 -769 -314 -1129 -115 -244 -285 -515 -445 -707 l-68 -83 -165 157 c-90
86 -164 160 -164 164 0 4 19 30 43 56 62 70 155 195 219 295 197 306 310 553
389 854 18 66 38 142 45 169 8 27 19 85 26 127 l12 78 64 7 c35 3 123 21 195
39 183 45 171 48 163 -27z m-1006 -232 c-41 -218 -116 -404 -255 -636 -82
-136 -119 -185 -255 -335 -263 -290 -563 -501 -903 -635 -91 -35 -256 -80
-298 -80 -28 0 -28 0 -23 53 8 75 7 74 71 87 91 19 285 94 438 170 137 68 183
99 542 374 44 33 83 76 129 144 144 210 250 393 307 527 62 146 109 274 123
337 15 66 16 68 47 69 18 1 43 4 57 8 32 9 35 -4 20 -83z m-4272 70 c2 -3 12
-37 22 -78 66 -257 195 -510 427 -837 116 -164 126 -175 177 -204 23 -13 91
-62 151 -109 135 -105 315 -215 455 -278 101 -45 292 -112 356 -125 28 -5 32
-11 46 -72 l16 -65 -50 6 c-216 29 -600 205 -836 383 -109 83 -411 387 -496
500 -35 47 -100 149 -145 227 -123 215 -185 385 -231 625 l-8 44 56 -7 c31 -4
58 -8 60 -10z m4493 -96 c38 -11 71 -25 75 -31 10 -16 -17 -69 -35 -68 -9 0
-47 13 -86 28 -65 25 -70 29 -73 59 -3 29 -1 32 24 32 15 0 58 -9 95 -20z
m-4709 -10 c1 -11 2 -27 2 -36 1 -17 -53 -37 -135 -50 -33 -6 -36 -4 -46 29
l-11 35 77 20 c99 26 111 26 113 2z m3951 -221 c39 -43 38 -98 -4 -133 -37
-31 -61 -33 -105 -5 -40 24 -54 47 -54 86 0 86 100 119 163 52z m-3194 -35
c22 -18 31 -35 31 -56 0 -63 -49 -73 -109 -22 -33 28 -36 39 -21 78 13 35 58
35 99 0z m-649 -34 c6 -12 10 -33 8 -48 -3 -23 -14 -31 -78 -59 -41 -17 -80
-32 -86 -32 -12 -1 -50 76 -42 85 9 8 162 73 175 73 7 1 17 -8 23 -19z m4500
-15 c58 -29 70 -39 70 -60 0 -31 -20 -75 -34 -75 -23 1 -151 87 -154 104 -7
33 8 66 28 66 11 0 52 -16 90 -35z m-3280 -105 c36 -24 73 -51 82 -61 17 -17
16 -20 -25 -54 -49 -43 -178 -129 -257 -173 -30 -16 -111 -62 -180 -101 -114
-65 -125 -70 -128 -51 -2 12 4 31 12 43 9 12 82 120 164 241 81 120 156 231
167 246 l20 28 40 -37 c22 -20 69 -57 105 -81z m2263 -131 c190 -281 235 -374
162 -329 -83 52 -272 164 -335 199 -95 54 -218 141 -225 161 -7 16 1 23 138
140 43 36 77 69 77 75 0 20 42 -37 183 -246z m-3343 -49 c7 -16 10 -37 6 -45
-6 -17 -121 -75 -148 -75 -22 0 -52 45 -45 65 6 15 157 96 168 89 4 -2 12 -17
19 -34z m4197 9 c32 -17 69 -42 81 -54 23 -21 23 -24 8 -53 -9 -17 -20 -33
-24 -36 -11 -6 -161 89 -168 107 -7 20 13 67 30 67 8 0 41 -14 73 -31z m-104
-287 c26 -18 47 -37 46 -40 -1 -15 -35 -66 -46 -69 -6 -2 -39 19 -74 48 -100
82 -95 73 -69 108 l22 32 36 -22 c21 -13 58 -38 85 -57z m-3936 16 c13 -18 19
-35 15 -39 -4 -4 -41 -26 -84 -49 l-76 -41 -16 23 c-9 12 -16 30 -16 39 0 18
115 99 140 99 8 0 25 -15 37 -32z m2293 -152 c-6 -45 -31 -193 -56 -331 -25
-137 -59 -331 -74 -430 -16 -99 -54 -295 -85 -435 -31 -140 -72 -330 -90 -421
-40 -198 -73 -338 -85 -359 -12 -22 -21 9 -55 185 -15 83 -57 294 -92 470 -35
176 -77 399 -94 495 -23 134 -149 800 -173 913 -5 22 -3 22 80 -6 114 -39 328
-75 339 -57 3 6 25 10 48 10 45 0 249 48 307 72 33 14 35 14 38 -5 2 -11 -1
-57 -8 -101z m503 46 c58 -39 72 -88 40 -142 -31 -53 -89 -64 -144 -27 -47 31
-60 82 -32 128 33 58 86 73 136 41z m-1659 -23 c33 -38 34 -85 3 -130 -19 -29
-29 -34 -69 -37 -40 -3 -48 0 -72 28 -57 68 -14 170 72 170 33 0 45 -6 66 -31z
m-926 -72 l33 -34 -75 -71 c-41 -39 -89 -78 -106 -87 -30 -15 -33 -15 -51 1
-10 9 -19 24 -19 31 0 17 160 193 176 193 5 0 25 -15 42 -33z m3500 -51 c38
-41 73 -84 77 -95 6 -21 -17 -71 -33 -71 -16 0 -69 43 -135 107 l-69 68 38 33
c20 17 41 32 44 32 4 0 39 -33 78 -74z m-3336 -163 c27 -24 22 -35 -30 -69
-66 -44 -68 -45 -86 -38 -23 9 -20 23 19 77 38 51 65 59 97 30z m3052 -29 c3
-8 2 -12 -4 -9 -6 3 -10 10 -10 16 0 14 7 11 14 -7z m-53 -35 c29 -15 79 -88
79 -115 0 -24 -33 -54 -61 -54 -9 0 -37 27 -63 60 -39 50 -45 63 -36 79 10 20
37 40 53 41 5 0 17 -5 28 -11z m109 -33 c0 -6 -4 -5 -9 2 -4 8 -11 13 -15 13
-3 -1 -6 1 -6 4 0 26 2 28 15 11 8 -11 15 -25 15 -30z m-3011 8 c17 -14 31
-31 31 -38 0 -7 -22 -36 -48 -66 -52 -58 -73 -61 -93 -17 -9 20 -5 33 28 85
21 34 41 61 45 62 3 0 20 -12 37 -26z m-404 -176 c211 -181 510 -374 720 -464
241 -104 568 -203 717 -218 l66 -7 7 -52 c6 -47 63 -322 80 -389 4 -16 5 -28
2 -28 -54 0 -318 37 -428 60 -242 50 -590 174 -769 272 -336 185 -571 355
-758 546 l-53 54 138 145 c76 79 143 151 148 159 14 20 22 15 130 -78z m3814
55 c60 -48 271 -260 271 -272 0 -15 -165 -166 -262 -239 -51 -38 -111 -84
-133 -102 -136 -108 -489 -304 -705 -390 -137 -55 -189 -71 -412 -125 -269
-66 -498 -94 -498 -63 0 7 18 96 39 198 22 102 42 201 45 220 l6 35 143 27
c377 72 738 221 1066 441 95 64 371 285 371 298 0 18 23 9 69 -28z m-3141 -33
c17 -11 32 -28 32 -37 0 -10 -18 -49 -39 -88 -28 -52 -43 -69 -56 -67 -26 5
-64 35 -65 50 0 14 82 162 90 162 3 0 20 -9 38 -20z m2385 -32 c44 -68 57 -93
57 -112 0 -16 -48 -46 -74 -46 -15 0 -96 133 -96 158 0 11 56 52 72 52 3 0 22
-24 41 -52z m-2099 -127 c19 -21 19 -22 -14 -91 -29 -60 -38 -70 -60 -70 -29
0 -50 16 -50 40 0 8 16 48 35 88 37 79 45 81 89 33z m1833 -45 c21 -42 33 -80
30 -90 -8 -21 -58 -40 -75 -29 -14 8 -72 138 -72 159 0 12 41 32 68 33 7 1 29
-32 49 -73z m-1529 -65 c3 -32 -14 -156 -24 -172 -6 -11 -65 8 -83 26 -13 13
-13 23 -1 82 21 109 22 111 67 104 34 -6 38 -9 41 -40z m1220 -16 c46 -114 38
-154 -30 -155 -34 0 -42 15 -58 107 -15 81 -11 100 22 106 38 7 42 3 66 -58z
m-523 -1547 c33 -14 68 -29 77 -32 16 -5 15 -9 -7 -42 -14 -21 -28 -48 -31
-61 -4 -13 -7 -23 -9 -23 -2 0 -26 15 -54 34 -81 55 -170 57 -186 5 -9 -29 6
-40 109 -79 113 -43 161 -73 180 -114 37 -78 11 -153 -74 -211 -41 -28 -52
-30 -130 -30 -89 1 -157 23 -231 75 l-29 21 27 47 c36 65 42 70 54 50 26 -46
173 -97 222 -79 33 13 42 41 20 61 -10 9 -58 32 -106 50 -101 38 -159 87 -178
148 -22 74 20 148 105 189 67 32 155 28 241 -9z" />
    <path d="M4605 8095 c-46 -46 -23 -115 39 -115 32 0 76 40 76 70 0 27 -43 70
-70 70 -11 0 -32 -11 -45 -25z" />
    <path d="M3996 7888 c-33 -47 -3 -138 44 -138 33 0 73 43 73 78 0 67 -83 109
-117 60z" />
    <path d="M3492 7583 c-39 -19 -51 -56 -31 -92 22 -39 60 -39 93 -1 32 38 33
63 4 90 -26 24 -24 24 -66 3z" />
    <path d="M5954 8095 c-53 -53 -4 -139 68 -119 45 13 64 53 44 92 -13 26 -52
52 -77 52 -5 0 -21 -11 -35 -25z" />
    <path d="M6556 7878 c-51 -73 41 -172 99 -108 27 30 25 88 -4 111 -32 26 -76
24 -95 -3z" />
    <path d="M7082 7558 c-30 -30 -1 -97 50 -114 17 -5 27 0 45 20 32 37 29 63 -9
86 -37 23 -68 26 -86 8z" />
    <path d="M2806 6909 c-30 -36 -31 -40 -11 -79 22 -43 60 -49 93 -17 30 31 34
78 7 107 -26 29 -59 25 -89 -11z" />
    <path d="M2627 6619 c-11 -6 -25 -26 -33 -45 -16 -38 -8 -66 26 -84 46 -25 87
1 96 62 5 30 2 38 -21 56 -31 25 -42 26 -68 11z" />
    <path d="M2380 6088 c-11 -18 -20 -41 -20 -51 0 -25 54 -77 80 -77 36 0 70 44
70 89 0 47 -26 71 -77 71 -27 0 -37 -6 -53 -32z" />
    <path d="M7722 6914 c-31 -21 -28 -60 7 -95 35 -34 54 -36 81 -9 24 24 25 41
5 79 -22 43 -55 52 -93 25z" />
    <path d="M7897 6582 c-24 -27 -21 -58 9 -81 33 -26 66 -27 89 -1 18 20 15 61
-7 87 -16 19 -72 16 -91 -5z" />
    <path d="M8160 6103 c-29 -10 -60 -47 -60 -69 0 -25 52 -74 79 -74 10 0 30 9
45 21 34 27 35 71 1 104 -24 25 -37 28 -65 18z" />
    <path d="M5260 5977 c-82 -42 -108 -130 -58 -200 40 -56 102 -71 166 -38 70
35 100 91 82 147 -12 35 -81 104 -104 104 -8 0 -21 2 -28 5 -8 3 -34 -5 -58
-18z" />
    <path d="M4702 5341 c-111 -38 -202 -125 -237 -226 -24 -69 -24 -177 -1 -245
27 -76 120 -170 194 -194 161 -54 354 32 443 196 32 59 34 69 34 158 0 78 -4
104 -23 145 -26 56 -82 119 -127 142 -84 44 -197 54 -283 24z" />
    <path d="M5713 5341 c-60 -20 -134 -77 -168 -130 -35 -53 -58 -153 -50 -218
10 -78 66 -183 127 -238 64 -58 107 -80 185 -96 104 -21 215 20 297 111 95
105 111 262 41 401 -76 150 -270 226 -432 170z" />
    <path d="M5273 4785 c-32 -39 -42 -56 -146 -259 l-71 -139 20 -35 c10 -20 31
-45 47 -56 27 -20 28 -20 62 -2 19 10 53 43 77 72 24 30 45 54 48 54 4 0 28
-25 54 -55 26 -31 65 -64 87 -76 l40 -20 34 34 c59 59 57 65 -45 272 -127 256
-150 280 -207 210z" />
    <path d="M2418 4184 c-53 -28 -61 -68 -22 -113 37 -44 86 -44 114 2 43 69 -23
149 -92 111z" />
    <path d="M2631 3674 c-25 -32 -25 -36 -6 -74 20 -38 62 -41 93 -7 26 28 27 38
7 77 -21 40 -65 41 -94 4z" />
    <path d="M2817 3368 c-9 -7 -19 -25 -22 -40 -5 -21 -1 -33 19 -52 33 -33 71
-34 92 -1 37 56 -36 132 -89 93z" />
    <path d="M8127 4178 c-39 -35 -43 -69 -13 -105 36 -42 60 -46 96 -16 24 19 30
33 30 62 0 66 -67 101 -113 59z" />
    <path d="M7902 3677 c-12 -13 -22 -35 -22 -49 0 -31 41 -68 76 -68 29 0 64 44
64 80 0 57 -76 81 -118 37z" />
    <path d="M7725 3354 c-33 -35 -31 -57 6 -88 39 -33 54 -33 90 3 34 35 36 49 8
85 -28 35 -72 35 -104 0z" />
    <path d="M3476 2689 c-35 -28 -34 -68 2 -102 33 -32 55 -34 82 -7 27 27 26 71
-2 97 -35 31 -54 34 -82 12z" />
    <path d="M3986 2389 c-48 -37 -30 -113 34 -139 25 -10 34 -10 55 4 57 37 54
111 -6 141 -37 20 -51 19 -83 -6z" />
    <path d="M4580 2170 c-34 -34 -22 -82 27 -108 36 -20 70 -14 92 14 27 34 26
46 -5 83 -31 38 -83 42 -114 11z" />
    <path d="M7096 2695 c-33 -30 -33 -59 -1 -90 30 -30 54 -31 89 -4 33 26 34 62
1 94 -31 32 -55 32 -89 0z" />
    <path d="M6551 2384 c-18 -15 -31 -35 -31 -49 0 -27 33 -71 60 -80 23 -7 75
18 84 40 12 32 6 75 -14 95 -27 27 -62 25 -99 -6z" />
    <path d="M5965 2190 c-53 -21 -60 -88 -14 -122 24 -18 29 -18 62 -5 42 18 60
47 51 82 -11 45 -54 64 -99 45z" />
  </g>
</svg>